<svg xmlns="http://www.w3.org/2000/svg" viewBox="0 0 512 512">
  <defs>
    <linearGradient id="g" x1="0" x2="1" y1="0" y2="1">
      <stop offset="0" stop-color="#3b82f6"/>
      <stop offset="1" stop-color="#22c55e"/>
    </linearGradient>
  </defs>
  <rect x="64" y="64" width="384" height="384" rx="96" fill="url(#g)"/>
  <path d="M170 220h172a18 18 0 0 1 0 36H170a18 18 0 0 1 0-36zm0 88h172a18 18 0 0 1 0 36H170a18 18 0 0 1 0-36z" fill="#fff" opacity="0.95"/>
  <path d="M168 160h40a18 18 0 0 1 0 36h-40a18 18 0 0 1 0-36z" fill="#fff" opacity="0.95"/>
</svg>
